<?xml version="1.0" encoding="UTF-8" standalone="no"?>
<svg width="14px" height="14px" viewBox="0 0 14 14" version="1.1" xmlns="http://www.w3.org/2000/svg" xmlns:xlink="http://www.w3.org/1999/xlink">
    <!-- Generator: Sketch 40.2 (33826) - http://www.bohemiancoding.com/sketch -->
    <title>alert</title>
    <desc>Created with Sketch.</desc>
    <defs></defs>
    <g id="Page-1" stroke="none" stroke-width="1" fill="none" fill-rule="evenodd">
        <g id="Dash---Housemate-Profile" transform="translate(-1077.000000, -221.000000)" fill="#FF5100">
            <g id="dash">
                <g id="profile" transform="translate(520.000000, 147.000000)">
                    <path d="M570.837999,85.893513 L565.296318,74.8101506 C565.053262,74.3078345 564.550946,73.9999633 564.000018,73.9999633 C563.449091,73.9999633 562.946775,74.3078345 562.687515,74.8101506 L557.145834,85.893513 C556.935185,86.3472179 556.951389,86.8819415 557.210649,87.3032389 C557.486112,87.7407401 557.956021,88 558.458337,88 L569.5417,88 C570.044016,88 570.513924,87.7407401 570.789388,87.3032389 C571.048648,86.8819415 571.064852,86.3472179 570.837999,85.893513 L570.837999,85.893513 Z M563.125016,77.7916399 L564.875021,77.7916399 L564.875021,82.7499862 L563.125016,82.7499862 L563.125016,77.7916399 Z M564.000018,86.5416628 C563.351869,86.5416628 562.833349,86.023143 562.833349,85.3749931 C562.833349,84.7268433 563.351869,84.2083234 564.000018,84.2083234 C564.648168,84.2083234 565.166688,84.7268433 565.166688,85.3749931 C565.166688,86.023143 564.648168,86.5416628 564.000018,86.5416628 L564.000018,86.5416628 Z" id="alert"></path>
                </g>
            </g>
        </g>
    </g>
</svg>